<svg xmlns="http://www.w3.org/2000/svg" xmlns:xlink="http://www.w3.org/1999/xlink" width="500" zoomAndPan="magnify" viewBox="0 0 375 374.999991" height="500" preserveAspectRatio="xMidYMid meet" version="1.0"><defs><filter x="0%" y="0%" width="100%" height="100%" id="78b42d21f0"><feColorMatrix values="0 0 0 0 1 0 0 0 0 1 0 0 0 0 1 0 0 0 1 0" color-interpolation-filters="sRGB"/></filter><g/><clipPath id="eeedd72db7"><path d="M 17.738281 125.597656 L 139.898438 125.597656 L 139.898438 231.125 L 17.738281 231.125 Z M 17.738281 125.597656 " clip-rule="nonzero"/></clipPath><clipPath id="33c07a9e9c"><path d="M 2.292969 1.726562 L 342 1.726562 L 342 274.191406 L 2.292969 274.191406 Z M 2.292969 1.726562 " clip-rule="nonzero"/></clipPath><clipPath id="4b31eccb0b"><path d="M 0.292969 0.726562 L 340 0.726562 L 340 273.191406 L 0.292969 273.191406 Z M 0.292969 0.726562 " clip-rule="nonzero"/></clipPath><clipPath id="1929693b8f"><path d="M 0.296875 0.726562 L 340 0.726562 L 340 273.191406 L 0.296875 273.191406 Z M 0.296875 0.726562 " clip-rule="nonzero"/></clipPath><linearGradient x1="-62.379376" gradientTransform="matrix(1.238589, 0, 0, 1.235777, 109.600902, 109.76854)" y1="158.112525" x2="184.995081" gradientUnits="userSpaceOnUse" y2="-89.259482" id="db7f688e30"><stop stop-opacity="1" stop-color="rgb(7.058716%, 8.239746%, 12.939453%)" offset="0"/><stop stop-opacity="1" stop-color="rgb(7.058716%, 8.239746%, 12.939453%)" offset="0.25"/><stop stop-opacity="1" stop-color="rgb(7.058716%, 8.239746%, 12.939453%)" offset="0.375"/><stop stop-opacity="1" stop-color="rgb(7.058716%, 8.239746%, 12.939453%)" offset="0.40625"/><stop stop-opacity="1" stop-color="rgb(7.524109%, 8.850098%, 13.844299%)" offset="0.410156"/><stop stop-opacity="1" stop-color="rgb(7.989502%, 9.461975%, 14.750671%)" offset="0.414062"/><stop stop-opacity="1" stop-color="rgb(8.560181%, 10.214233%, 15.863037%)" offset="0.417969"/><stop stop-opacity="1" stop-color="rgb(9.132385%, 10.966492%, 16.976929%)" offset="0.421875"/><stop stop-opacity="1" stop-color="rgb(9.70459%, 11.71875%, 18.09082%)" offset="0.425781"/><stop stop-opacity="1" stop-color="rgb(10.276794%, 12.471008%, 19.204712%)" offset="0.429688"/><stop stop-opacity="1" stop-color="rgb(10.847473%, 13.223267%, 20.317078%)" offset="0.433594"/><stop stop-opacity="1" stop-color="rgb(11.419678%, 13.975525%, 21.430969%)" offset="0.4375"/><stop stop-opacity="1" stop-color="rgb(11.990356%, 14.726257%, 22.544861%)" offset="0.441406"/><stop stop-opacity="1" stop-color="rgb(12.562561%, 15.478516%, 23.658752%)" offset="0.445312"/><stop stop-opacity="1" stop-color="rgb(13.134766%, 16.230774%, 24.771118%)" offset="0.449219"/><stop stop-opacity="1" stop-color="rgb(13.70697%, 16.983032%, 25.88501%)" offset="0.453125"/><stop stop-opacity="1" stop-color="rgb(14.277649%, 17.735291%, 26.998901%)" offset="0.457031"/><stop stop-opacity="1" stop-color="rgb(14.849854%, 18.487549%, 28.112793%)" offset="0.460938"/><stop stop-opacity="1" stop-color="rgb(15.420532%, 19.239807%, 29.225159%)" offset="0.464844"/><stop stop-opacity="1" stop-color="rgb(15.992737%, 19.992065%, 30.33905%)" offset="0.46875"/><stop stop-opacity="1" stop-color="rgb(16.564941%, 20.742798%, 31.452942%)" offset="0.472656"/><stop stop-opacity="1" stop-color="rgb(17.137146%, 21.495056%, 32.566833%)" offset="0.476563"/><stop stop-opacity="1" stop-color="rgb(17.707825%, 22.247314%, 33.679199%)" offset="0.480469"/><stop stop-opacity="1" stop-color="rgb(18.280029%, 22.999573%, 34.793091%)" offset="0.484375"/><stop stop-opacity="1" stop-color="rgb(18.850708%, 23.751831%, 35.906982%)" offset="0.488281"/><stop stop-opacity="1" stop-color="rgb(19.422913%, 24.504089%, 37.020874%)" offset="0.492188"/><stop stop-opacity="1" stop-color="rgb(19.995117%, 25.254822%, 38.13324%)" offset="0.496094"/><stop stop-opacity="1" stop-color="rgb(20.567322%, 26.00708%, 39.247131%)" offset="0.5"/><stop stop-opacity="1" stop-color="rgb(21.138%, 26.759338%, 40.361023%)" offset="0.503906"/><stop stop-opacity="1" stop-color="rgb(21.710205%, 27.511597%, 41.474915%)" offset="0.507812"/><stop stop-opacity="1" stop-color="rgb(23.687744%, 26.997375%, 40.818787%)" offset="0.511719"/><stop stop-opacity="1" stop-color="rgb(25.666809%, 26.48468%, 40.164185%)" offset="0.515625"/><stop stop-opacity="1" stop-color="rgb(28.036499%, 25.619507%, 39.016724%)" offset="0.519531"/><stop stop-opacity="1" stop-color="rgb(30.407715%, 24.754333%, 37.869263%)" offset="0.523438"/><stop stop-opacity="1" stop-color="rgb(32.777405%, 23.88916%, 36.721802%)" offset="0.527344"/><stop stop-opacity="1" stop-color="rgb(35.147095%, 23.023987%, 35.574341%)" offset="0.53125"/><stop stop-opacity="1" stop-color="rgb(37.516785%, 22.158813%, 34.42688%)" offset="0.535156"/><stop stop-opacity="1" stop-color="rgb(39.886475%, 21.29364%, 33.280945%)" offset="0.539062"/><stop stop-opacity="1" stop-color="rgb(42.256165%, 20.428467%, 32.133484%)" offset="0.542969"/><stop stop-opacity="1" stop-color="rgb(44.625854%, 19.563293%, 30.986023%)" offset="0.546875"/><stop stop-opacity="1" stop-color="rgb(46.995544%, 18.69812%, 29.838562%)" offset="0.550781"/><stop stop-opacity="1" stop-color="rgb(49.365234%, 17.832947%, 28.691101%)" offset="0.554688"/><stop stop-opacity="1" stop-color="rgb(51.734924%, 16.967773%, 27.54364%)" offset="0.558594"/><stop stop-opacity="1" stop-color="rgb(54.10614%, 16.1026%, 26.396179%)" offset="0.5625"/><stop stop-opacity="1" stop-color="rgb(56.47583%, 15.237427%, 25.248718%)" offset="0.566406"/><stop stop-opacity="1" stop-color="rgb(58.84552%, 14.372253%, 24.102783%)" offset="0.570312"/><stop stop-opacity="1" stop-color="rgb(61.21521%, 13.50708%, 22.955322%)" offset="0.574219"/><stop stop-opacity="1" stop-color="rgb(63.5849%, 12.641907%, 21.807861%)" offset="0.578125"/><stop stop-opacity="1" stop-color="rgb(65.95459%, 11.776733%, 20.6604%)" offset="0.582031"/><stop stop-opacity="1" stop-color="rgb(68.32428%, 10.91156%, 19.512939%)" offset="0.585938"/><stop stop-opacity="1" stop-color="rgb(70.239258%, 11.25946%, 19.45343%)" offset="0.589844"/><stop stop-opacity="1" stop-color="rgb(72.155762%, 11.607361%, 19.395447%)" offset="0.59375"/><stop stop-opacity="1" stop-color="rgb(73.252869%, 14.135742%, 21.290588%)" offset="0.597656"/><stop stop-opacity="1" stop-color="rgb(74.351501%, 16.664124%, 23.187256%)" offset="0.601562"/><stop stop-opacity="1" stop-color="rgb(75.450134%, 19.192505%, 25.082397%)" offset="0.605469"/><stop stop-opacity="1" stop-color="rgb(76.548767%, 21.720886%, 26.979065%)" offset="0.609375"/><stop stop-opacity="1" stop-color="rgb(77.6474%, 24.249268%, 28.874207%)" offset="0.613281"/><stop stop-opacity="1" stop-color="rgb(78.746033%, 26.777649%, 30.770874%)" offset="0.617188"/><stop stop-opacity="1" stop-color="rgb(79.844666%, 29.304504%, 32.666016%)" offset="0.621094"/><stop stop-opacity="1" stop-color="rgb(80.943298%, 31.832886%, 34.562683%)" offset="0.625"/><stop stop-opacity="1" stop-color="rgb(82.041931%, 34.361267%, 36.457825%)" offset="0.628906"/><stop stop-opacity="1" stop-color="rgb(83.140564%, 36.889648%, 38.354492%)" offset="0.632812"/><stop stop-opacity="1" stop-color="rgb(84.239197%, 39.41803%, 40.249634%)" offset="0.636719"/><stop stop-opacity="1" stop-color="rgb(85.33783%, 41.946411%, 42.146301%)" offset="0.640625"/><stop stop-opacity="1" stop-color="rgb(86.436462%, 44.474792%, 44.041443%)" offset="0.644531"/><stop stop-opacity="1" stop-color="rgb(87.535095%, 47.003174%, 45.93811%)" offset="0.648437"/><stop stop-opacity="1" stop-color="rgb(88.633728%, 49.530029%, 47.833252%)" offset="0.652344"/><stop stop-opacity="1" stop-color="rgb(89.732361%, 52.058411%, 49.729919%)" offset="0.65625"/><stop stop-opacity="1" stop-color="rgb(90.829468%, 54.586792%, 51.625061%)" offset="0.660156"/><stop stop-opacity="1" stop-color="rgb(91.928101%, 57.115173%, 53.521729%)" offset="0.664062"/><stop stop-opacity="1" stop-color="rgb(93.026733%, 59.643555%, 55.41687%)" offset="0.667969"/><stop stop-opacity="1" stop-color="rgb(94.125366%, 62.171936%, 57.313538%)" offset="0.671875"/><stop stop-opacity="1" stop-color="rgb(95.223999%, 64.700317%, 59.208679%)" offset="0.675781"/><stop stop-opacity="1" stop-color="rgb(96.322632%, 67.228699%, 61.105347%)" offset="0.679688"/><stop stop-opacity="1" stop-color="rgb(97.421265%, 69.75708%, 63.000488%)" offset="0.683594"/><stop stop-opacity="1" stop-color="rgb(98.519897%, 72.285461%, 64.89563%)" offset="0.6875"/><stop stop-opacity="1" stop-color="rgb(99.259949%, 73.986816%, 66.172791%)" offset="0.691406"/><stop stop-opacity="1" stop-color="rgb(100%, 75.689697%, 67.449951%)" offset="0.695312"/><stop stop-opacity="1" stop-color="rgb(100%, 75.689697%, 67.449951%)" offset="0.703125"/><stop stop-opacity="1" stop-color="rgb(100%, 75.689697%, 67.449951%)" offset="0.71875"/><stop stop-opacity="1" stop-color="rgb(100%, 75.689697%, 67.449951%)" offset="0.75"/><stop stop-opacity="1" stop-color="rgb(100%, 75.689697%, 67.449951%)" offset="1"/></linearGradient><clipPath id="76597026df"><rect x="0" width="340" y="0" height="274"/></clipPath><clipPath id="6a5a64cead"><path d="M 0.292969 0.726562 L 340 0.726562 L 340 273.191406 L 0.292969 273.191406 Z M 0.292969 0.726562 " clip-rule="nonzero"/></clipPath><clipPath id="9515a23fd2"><rect x="0" width="340" y="0" height="274"/></clipPath><clipPath id="e949700208"><rect x="0" width="340" y="0" height="274"/></clipPath><mask id="4697e614f9"><g filter="url(#78b42d21f0)"><g transform="matrix(1, 0, 0, 1, 0, -0.000000000000007105)"><g clip-path="url(#e949700208)"><g clip-path="url(#6a5a64cead)"><g transform="matrix(1, 0, 0, 1, 0, -0.000000000000007105)"><g clip-path="url(#9515a23fd2)"><g fill="#000000" fill-opacity="1"><g transform="translate(109.280922, 154.298292)"><g><path d="M 24.859375 -19.828125 C 28.210938 -19.242188 30.925781 -18.125 33 -16.46875 C 35.082031 -14.8125 36.125 -12.65625 36.125 -10 C 36.125 -8.070312 35.578125 -6.347656 34.484375 -4.828125 C 33.390625 -3.316406 31.921875 -2.132812 30.078125 -1.28125 C 28.234375 -0.425781 26.1875 0 23.9375 0 L 4.046875 0 L 4.046875 -38.25 L 22.296875 -38.25 C 24.628906 -38.25 26.710938 -37.828125 28.546875 -36.984375 C 30.390625 -36.148438 31.835938 -35.019531 32.890625 -33.59375 C 33.953125 -32.175781 34.484375 -30.578125 34.484375 -28.796875 C 34.484375 -26.578125 33.625 -24.691406 31.90625 -23.140625 C 30.195312 -21.585938 27.847656 -20.484375 24.859375 -19.828125 Z M 18.90625 -37.15625 L 12.40625 -37.15625 L 12.40625 -20.21875 L 18.09375 -20.21875 C 20.457031 -20.21875 22.347656 -20.890625 23.765625 -22.234375 C 25.191406 -23.585938 25.90625 -25.679688 25.90625 -28.515625 C 25.90625 -31.210938 25.265625 -33.328125 23.984375 -34.859375 C 22.710938 -36.390625 21.019531 -37.15625 18.90625 -37.15625 Z M 20.546875 -1.09375 C 22.660156 -1.09375 24.351562 -1.894531 25.625 -3.5 C 26.894531 -5.101562 27.53125 -7.304688 27.53125 -10.109375 C 27.53125 -12.035156 27.257812 -13.597656 26.71875 -14.796875 C 26.175781 -16.003906 25.484375 -16.914062 24.640625 -17.53125 C 23.804688 -18.15625 22.953125 -18.578125 22.078125 -18.796875 C 21.203125 -19.015625 20.414062 -19.125 19.71875 -19.125 L 12.40625 -19.125 L 12.40625 -1.09375 Z M 20.546875 -1.09375 "/></g></g></g><g fill="#000000" fill-opacity="1"><g transform="translate(146.482894, 154.298292)"><g><path d="M 2.78125 -14.203125 L 2.78125 -15.296875 L 18.03125 -15.296875 L 18.03125 -14.203125 Z M 2.78125 -14.203125 "/></g></g></g><g fill="#000000" fill-opacity="1"><g transform="translate(167.241701, 154.298292)"><g><path d="M 36.65625 -7.765625 L 37.859375 -7 C 36.703125 -4.84375 34.765625 -3.046875 32.046875 -1.609375 C 29.328125 -0.171875 26.1875 0.546875 22.625 0.546875 C 19.78125 0.546875 17.109375 0.0664062 14.609375 -0.890625 C 12.117188 -1.859375 9.925781 -3.226562 8.03125 -5 C 6.132812 -6.769531 4.65625 -8.847656 3.59375 -11.234375 C 2.539062 -13.617188 2.015625 -16.226562 2.015625 -19.0625 C 2.015625 -21.832031 2.523438 -24.410156 3.546875 -26.796875 C 4.566406 -29.179688 6.003906 -31.273438 7.859375 -33.078125 C 9.722656 -34.890625 11.898438 -36.296875 14.390625 -37.296875 C 16.890625 -38.296875 19.597656 -38.796875 22.515625 -38.796875 C 25.429688 -38.796875 28.015625 -38.320312 30.265625 -37.375 C 32.523438 -36.425781 34.300781 -35.195312 35.59375 -33.6875 C 36.882812 -32.175781 37.53125 -30.546875 37.53125 -28.796875 L 37.53125 -28.625 C 37.53125 -27.539062 37.148438 -26.597656 36.390625 -25.796875 C 35.628906 -24.992188 34.628906 -24.59375 33.390625 -24.59375 C 32.179688 -24.59375 31.164062 -24.984375 30.34375 -25.765625 C 29.53125 -26.546875 29.125 -27.554688 29.125 -28.796875 C 29.125 -29.992188 29.53125 -30.984375 30.34375 -31.765625 C 31.164062 -32.554688 32.160156 -32.953125 33.328125 -32.953125 C 33.765625 -32.953125 34.164062 -32.894531 34.53125 -32.78125 C 33.695312 -33.988281 32.46875 -34.972656 30.84375 -35.734375 C 29.21875 -36.492188 27.296875 -36.875 25.078125 -36.875 C 22.128906 -36.875 19.570312 -36.164062 17.40625 -34.75 C 15.238281 -33.332031 13.5625 -31.300781 12.375 -28.65625 C 11.1875 -26.019531 10.59375 -22.84375 10.59375 -19.125 C 10.59375 -15.445312 11.1875 -12.273438 12.375 -9.609375 C 13.5625 -6.953125 15.238281 -4.910156 17.40625 -3.484375 C 19.570312 -2.066406 22.128906 -1.359375 25.078125 -1.359375 C 27.773438 -1.359375 30.109375 -1.929688 32.078125 -3.078125 C 34.046875 -4.234375 35.570312 -5.796875 36.65625 -7.765625 Z M 36.65625 -7.765625 "/></g></g></g><g fill="#000000" fill-opacity="1"><g transform="translate(206.738058, 154.298292)"><g><path d="M 22.453125 0.546875 C 19.546875 0.546875 16.851562 0.0546875 14.375 -0.921875 C 11.894531 -1.910156 9.722656 -3.296875 7.859375 -5.078125 C 6.003906 -6.867188 4.566406 -8.957031 3.546875 -11.34375 C 2.523438 -13.726562 2.015625 -16.320312 2.015625 -19.125 C 2.015625 -21.925781 2.523438 -24.519531 3.546875 -26.90625 C 4.566406 -29.289062 6.003906 -31.375 7.859375 -33.15625 C 9.722656 -34.945312 11.894531 -36.332031 14.375 -37.3125 C 16.851562 -38.300781 19.546875 -38.796875 22.453125 -38.796875 C 25.367188 -38.796875 28.066406 -38.300781 30.546875 -37.3125 C 33.023438 -36.332031 35.191406 -34.945312 37.046875 -33.15625 C 38.898438 -31.375 40.335938 -29.289062 41.359375 -26.90625 C 42.378906 -24.519531 42.890625 -21.925781 42.890625 -19.125 C 42.890625 -16.320312 42.378906 -13.726562 41.359375 -11.34375 C 40.335938 -8.957031 38.898438 -6.867188 37.046875 -5.078125 C 35.191406 -3.296875 33.023438 -1.910156 30.546875 -0.921875 C 28.066406 0.0546875 25.367188 0.546875 22.453125 0.546875 Z M 22.453125 -0.546875 C 24.828125 -0.546875 26.90625 -1.316406 28.6875 -2.859375 C 30.46875 -4.410156 31.847656 -6.578125 32.828125 -9.359375 C 33.816406 -12.148438 34.3125 -15.40625 34.3125 -19.125 C 34.3125 -22.875 33.816406 -26.132812 32.828125 -28.90625 C 31.847656 -31.675781 30.46875 -33.832031 28.6875 -35.375 C 26.90625 -36.925781 24.828125 -37.703125 22.453125 -37.703125 C 20.085938 -37.703125 18.007812 -36.925781 16.21875 -35.375 C 14.4375 -33.832031 13.050781 -31.675781 12.0625 -28.90625 C 11.082031 -26.132812 10.59375 -22.875 10.59375 -19.125 C 10.59375 -15.40625 11.082031 -12.148438 12.0625 -9.359375 C 13.050781 -6.578125 14.4375 -4.410156 16.21875 -2.859375 C 18.007812 -1.316406 20.085938 -0.546875 22.453125 -0.546875 Z M 22.453125 -0.546875 "/></g></g></g><g fill="#000000" fill-opacity="1"><g transform="translate(251.642645, 154.298292)"><g><path d="M 34.921875 -38.25 L 36.234375 -38.25 L 36.234375 0 L 34.375 0 L 5.359375 -29.453125 L 5.359375 0 L 4.046875 0 L 4.046875 -38.25 L 8.140625 -38.25 L 34.921875 -10.875 Z M 34.921875 -38.25 "/></g></g></g></g></g></g></g></g></g></mask><clipPath id="e1d3e581a3"><path d="M 0.296875 0.726562 L 340 0.726562 L 340 273.191406 L 0.296875 273.191406 Z M 0.296875 0.726562 " clip-rule="nonzero"/></clipPath><clipPath id="038d316ae3"><rect x="0" width="340" y="0" height="274"/></clipPath><clipPath id="170649ab2d"><rect x="0" width="340" y="0" height="274"/></clipPath><clipPath id="93ca8cae3d"><rect x="0" width="342" y="0" height="276"/></clipPath><clipPath id="3be6f02432"><path d="M 0.144531 0.960938 L 270 0.960938 L 270 104.480469 L 0.144531 104.480469 Z M 0.144531 0.960938 " clip-rule="nonzero"/></clipPath><clipPath id="ddea49a682"><path d="M 0.144531 0.960938 L 270 0.960938 L 270 104.480469 L 0.144531 104.480469 Z M 0.144531 0.960938 " clip-rule="nonzero"/></clipPath><clipPath id="93277c155c"><path d="M 0.15625 0.960938 L 266.511719 0.960938 L 266.511719 103.21875 L 0.15625 103.21875 Z M 0.15625 0.960938 " clip-rule="nonzero"/></clipPath><linearGradient x1="-0.353503" gradientTransform="matrix(1.262748, 0, 0, 1.255499, 41.478657, 42.044805)" y1="81.095496" x2="145.837501" gradientUnits="userSpaceOnUse" y2="-65.095498" id="f15d82685f"><stop stop-opacity="1" stop-color="rgb(7.058716%, 8.239746%, 12.939453%)" offset="0"/><stop stop-opacity="1" stop-color="rgb(7.058716%, 8.239746%, 12.939453%)" offset="0.25"/><stop stop-opacity="1" stop-color="rgb(7.058716%, 8.239746%, 12.939453%)" offset="0.27857"/><stop stop-opacity="1" stop-color="rgb(7.058716%, 8.239746%, 12.939453%)" offset="0.28125"/><stop stop-opacity="1" stop-color="rgb(7.058716%, 8.239746%, 12.939453%)" offset="0.296875"/><stop stop-opacity="1" stop-color="rgb(7.058716%, 8.239746%, 12.939453%)" offset="0.304687"/><stop stop-opacity="1" stop-color="rgb(7.371521%, 8.651733%, 13.549805%)" offset="0.308594"/><stop stop-opacity="1" stop-color="rgb(7.685852%, 9.063721%, 14.160156%)" offset="0.3125"/><stop stop-opacity="1" stop-color="rgb(8.106995%, 9.617615%, 14.981079%)" offset="0.316406"/><stop stop-opacity="1" stop-color="rgb(8.529663%, 10.173035%, 15.802002%)" offset="0.320312"/><stop stop-opacity="1" stop-color="rgb(8.950806%, 10.726929%, 16.622925%)" offset="0.324219"/><stop stop-opacity="1" stop-color="rgb(9.371948%, 11.280823%, 17.443848%)" offset="0.328125"/><stop stop-opacity="1" stop-color="rgb(9.793091%, 11.834717%, 18.264771%)" offset="0.332031"/><stop stop-opacity="1" stop-color="rgb(10.215759%, 12.390137%, 19.085693%)" offset="0.335937"/><stop stop-opacity="1" stop-color="rgb(10.636902%, 12.944031%, 19.906616%)" offset="0.339844"/><stop stop-opacity="1" stop-color="rgb(11.058044%, 13.499451%, 20.727539%)" offset="0.34375"/><stop stop-opacity="1" stop-color="rgb(11.479187%, 14.053345%, 21.548462%)" offset="0.347656"/><stop stop-opacity="1" stop-color="rgb(11.901855%, 14.608765%, 22.369385%)" offset="0.351562"/><stop stop-opacity="1" stop-color="rgb(12.322998%, 15.162659%, 23.190308%)" offset="0.355469"/><stop stop-opacity="1" stop-color="rgb(12.744141%, 15.718079%, 24.01123%)" offset="0.359375"/><stop stop-opacity="1" stop-color="rgb(13.165283%, 16.271973%, 24.832153%)" offset="0.363281"/><stop stop-opacity="1" stop-color="rgb(13.587952%, 16.825867%, 25.653076%)" offset="0.367187"/><stop stop-opacity="1" stop-color="rgb(14.009094%, 17.379761%, 26.473999%)" offset="0.371094"/><stop stop-opacity="1" stop-color="rgb(14.430237%, 17.935181%, 27.294922%)" offset="0.375"/><stop stop-opacity="1" stop-color="rgb(14.851379%, 18.489075%, 28.115845%)" offset="0.378906"/><stop stop-opacity="1" stop-color="rgb(15.274048%, 19.044495%, 28.936768%)" offset="0.382812"/><stop stop-opacity="1" stop-color="rgb(15.69519%, 19.598389%, 29.75769%)" offset="0.386719"/><stop stop-opacity="1" stop-color="rgb(16.116333%, 20.153809%, 30.580139%)" offset="0.390625"/><stop stop-opacity="1" stop-color="rgb(16.537476%, 20.707703%, 31.401062%)" offset="0.394531"/><stop stop-opacity="1" stop-color="rgb(16.960144%, 21.263123%, 32.221985%)" offset="0.398437"/><stop stop-opacity="1" stop-color="rgb(17.381287%, 21.817017%, 33.042908%)" offset="0.402344"/><stop stop-opacity="1" stop-color="rgb(17.802429%, 22.370911%, 33.863831%)" offset="0.40625"/><stop stop-opacity="1" stop-color="rgb(18.223572%, 22.924805%, 34.684753%)" offset="0.410156"/><stop stop-opacity="1" stop-color="rgb(18.64624%, 23.480225%, 35.505676%)" offset="0.414062"/><stop stop-opacity="1" stop-color="rgb(19.067383%, 24.034119%, 36.326599%)" offset="0.417969"/><stop stop-opacity="1" stop-color="rgb(19.488525%, 24.589539%, 37.147522%)" offset="0.421875"/><stop stop-opacity="1" stop-color="rgb(19.909668%, 25.143433%, 37.968445%)" offset="0.425781"/><stop stop-opacity="1" stop-color="rgb(20.332336%, 25.698853%, 38.789368%)" offset="0.429687"/><stop stop-opacity="1" stop-color="rgb(20.753479%, 26.252747%, 39.610291%)" offset="0.433594"/><stop stop-opacity="1" stop-color="rgb(21.174622%, 26.806641%, 40.431213%)" offset="0.4375"/><stop stop-opacity="1" stop-color="rgb(21.687317%, 27.278137%, 41.136169%)" offset="0.441406"/><stop stop-opacity="1" stop-color="rgb(22.201538%, 27.75116%, 41.841125%)" offset="0.445312"/><stop stop-opacity="1" stop-color="rgb(23.948669%, 27.111816%, 40.995789%)" offset="0.449219"/><stop stop-opacity="1" stop-color="rgb(25.697327%, 26.473999%, 40.150452%)" offset="0.453125"/><stop stop-opacity="1" stop-color="rgb(27.444458%, 25.836182%, 39.303589%)" offset="0.457031"/><stop stop-opacity="1" stop-color="rgb(29.191589%, 25.198364%, 38.458252%)" offset="0.460937"/><stop stop-opacity="1" stop-color="rgb(30.938721%, 24.560547%, 37.611389%)" offset="0.464844"/><stop stop-opacity="1" stop-color="rgb(32.685852%, 23.922729%, 36.766052%)" offset="0.46875"/><stop stop-opacity="1" stop-color="rgb(34.432983%, 23.284912%, 35.919189%)" offset="0.472656"/><stop stop-opacity="1" stop-color="rgb(36.180115%, 22.647095%, 35.073853%)" offset="0.476562"/><stop stop-opacity="1" stop-color="rgb(37.927246%, 22.009277%, 34.228516%)" offset="0.480469"/><stop stop-opacity="1" stop-color="rgb(39.674377%, 21.37146%, 33.383179%)" offset="0.484375"/><stop stop-opacity="1" stop-color="rgb(41.421509%, 20.733643%, 32.536316%)" offset="0.488281"/><stop stop-opacity="1" stop-color="rgb(43.170166%, 20.095825%, 31.690979%)" offset="0.492187"/><stop stop-opacity="1" stop-color="rgb(44.917297%, 19.456482%, 30.844116%)" offset="0.496094"/><stop stop-opacity="1" stop-color="rgb(46.664429%, 18.818665%, 29.998779%)" offset="0.5"/><stop stop-opacity="1" stop-color="rgb(48.41156%, 18.180847%, 29.153442%)" offset="0.503906"/><stop stop-opacity="1" stop-color="rgb(50.158691%, 17.54303%, 28.308105%)" offset="0.507812"/><stop stop-opacity="1" stop-color="rgb(51.905823%, 16.905212%, 27.461243%)" offset="0.511719"/><stop stop-opacity="1" stop-color="rgb(53.652954%, 16.267395%, 26.615906%)" offset="0.515625"/><stop stop-opacity="1" stop-color="rgb(55.400085%, 15.629578%, 25.769043%)" offset="0.519531"/><stop stop-opacity="1" stop-color="rgb(57.148743%, 14.99176%, 24.923706%)" offset="0.523438"/><stop stop-opacity="1" stop-color="rgb(58.895874%, 14.353943%, 24.076843%)" offset="0.527344"/><stop stop-opacity="1" stop-color="rgb(60.643005%, 13.716125%, 23.231506%)" offset="0.53125"/><stop stop-opacity="1" stop-color="rgb(62.390137%, 13.076782%, 22.386169%)" offset="0.535156"/><stop stop-opacity="1" stop-color="rgb(64.137268%, 12.438965%, 21.540833%)" offset="0.539062"/><stop stop-opacity="1" stop-color="rgb(65.884399%, 11.801147%, 20.69397%)" offset="0.542969"/><stop stop-opacity="1" stop-color="rgb(67.631531%, 11.16333%, 19.848633%)" offset="0.546875"/><stop stop-opacity="1" stop-color="rgb(69.378662%, 10.525513%, 19.00177%)" offset="0.550781"/><stop stop-opacity="1" stop-color="rgb(71.125793%, 9.887695%, 18.156433%)" offset="0.554688"/><stop stop-opacity="1" stop-color="rgb(72.000122%, 11.576843%, 19.398499%)" offset="0.558594"/><stop stop-opacity="1" stop-color="rgb(72.875977%, 13.267517%, 20.640564%)" offset="0.5625"/><stop stop-opacity="1" stop-color="rgb(73.686218%, 15.132141%, 22.038269%)" offset="0.566406"/><stop stop-opacity="1" stop-color="rgb(74.49646%, 16.996765%, 23.435974%)" offset="0.570312"/><stop stop-opacity="1" stop-color="rgb(75.306702%, 18.859863%, 24.833679%)" offset="0.574219"/><stop stop-opacity="1" stop-color="rgb(76.116943%, 20.724487%, 26.231384%)" offset="0.578125"/><stop stop-opacity="1" stop-color="rgb(76.925659%, 22.587585%, 27.629089%)" offset="0.582031"/><stop stop-opacity="1" stop-color="rgb(77.735901%, 24.452209%, 29.02832%)" offset="0.585937"/><stop stop-opacity="1" stop-color="rgb(78.546143%, 26.316833%, 30.426025%)" offset="0.589844"/><stop stop-opacity="1" stop-color="rgb(79.356384%, 28.181458%, 31.82373%)" offset="0.59375"/><stop stop-opacity="1" stop-color="rgb(80.166626%, 30.044556%, 33.221436%)" offset="0.597656"/><stop stop-opacity="1" stop-color="rgb(80.976868%, 31.90918%, 34.619141%)" offset="0.601562"/><stop stop-opacity="1" stop-color="rgb(81.785583%, 33.772278%, 36.016846%)" offset="0.605469"/><stop stop-opacity="1" stop-color="rgb(82.595825%, 35.636902%, 37.414551%)" offset="0.609375"/><stop stop-opacity="1" stop-color="rgb(83.406067%, 37.5%, 38.812256%)" offset="0.613281"/><stop stop-opacity="1" stop-color="rgb(84.216309%, 39.364624%, 40.209961%)" offset="0.617187"/><stop stop-opacity="1" stop-color="rgb(85.025024%, 41.229248%, 41.607666%)" offset="0.621094"/><stop stop-opacity="1" stop-color="rgb(85.835266%, 43.093872%, 43.005371%)" offset="0.625"/><stop stop-opacity="1" stop-color="rgb(86.645508%, 44.95697%, 44.403076%)" offset="0.628906"/><stop stop-opacity="1" stop-color="rgb(87.45575%, 46.821594%, 45.802307%)" offset="0.632812"/><stop stop-opacity="1" stop-color="rgb(88.265991%, 48.684692%, 47.200012%)" offset="0.636719"/><stop stop-opacity="1" stop-color="rgb(89.076233%, 50.549316%, 48.597717%)" offset="0.640625"/><stop stop-opacity="1" stop-color="rgb(89.884949%, 52.412415%, 49.995422%)" offset="0.644531"/><stop stop-opacity="1" stop-color="rgb(90.69519%, 54.277039%, 51.393127%)" offset="0.648438"/><stop stop-opacity="1" stop-color="rgb(91.505432%, 56.141663%, 52.790833%)" offset="0.652344"/><stop stop-opacity="1" stop-color="rgb(92.315674%, 58.006287%, 54.188538%)" offset="0.65625"/><stop stop-opacity="1" stop-color="rgb(93.125916%, 59.869385%, 55.586243%)" offset="0.660156"/><stop stop-opacity="1" stop-color="rgb(93.936157%, 61.734009%, 56.983948%)" offset="0.664062"/><stop stop-opacity="1" stop-color="rgb(94.744873%, 63.597107%, 58.381653%)" offset="0.667969"/><stop stop-opacity="1" stop-color="rgb(95.555115%, 65.461731%, 59.779358%)" offset="0.671875"/><stop stop-opacity="1" stop-color="rgb(96.365356%, 67.324829%, 61.177063%)" offset="0.675781"/><stop stop-opacity="1" stop-color="rgb(97.175598%, 69.189453%, 62.576294%)" offset="0.679687"/><stop stop-opacity="1" stop-color="rgb(97.984314%, 71.054077%, 63.973999%)" offset="0.683594"/><stop stop-opacity="1" stop-color="rgb(98.794556%, 72.918701%, 65.371704%)" offset="0.6875"/><stop stop-opacity="1" stop-color="rgb(99.397278%, 74.304199%, 66.410828%)" offset="0.691406"/><stop stop-opacity="1" stop-color="rgb(100%, 75.689697%, 67.449951%)" offset="0.695312"/><stop stop-opacity="1" stop-color="rgb(100%, 75.689697%, 67.449951%)" offset="0.703125"/><stop stop-opacity="1" stop-color="rgb(100%, 75.689697%, 67.449951%)" offset="0.71875"/><stop stop-opacity="1" stop-color="rgb(100%, 75.689697%, 67.449951%)" offset="0.72143"/><stop stop-opacity="1" stop-color="rgb(100%, 75.689697%, 67.449951%)" offset="0.75"/><stop stop-opacity="1" stop-color="rgb(100%, 75.689697%, 67.449951%)" offset="1"/></linearGradient><clipPath id="024c0012d6"><rect x="0" width="270" y="0" height="105"/></clipPath><clipPath id="bd55cfb96e"><path d="M 0.144531 0.960938 L 270 0.960938 L 270 104.480469 L 0.144531 104.480469 Z M 0.144531 0.960938 " clip-rule="nonzero"/></clipPath><clipPath id="ad05e383c7"><rect x="0" width="270" y="0" height="105"/></clipPath><clipPath id="c6dfbe4342"><rect x="0" width="270" y="0" height="105"/></clipPath><mask id="5ce395a394"><g filter="url(#78b42d21f0)"><g><g clip-path="url(#c6dfbe4342)"><g clip-path="url(#bd55cfb96e)"><g><g clip-path="url(#ad05e383c7)"><g fill="#000000" fill-opacity="1"><g transform="translate(41.805844, 56.508029)"><g><path d="M 8.453125 0.515625 C 6.878906 0.515625 5.515625 0.195312 4.359375 -0.4375 C 3.203125 -1.082031 2.304688 -1.984375 1.671875 -3.140625 C 1.035156 -4.304688 0.71875 -5.679688 0.71875 -7.265625 C 0.71875 -8.867188 1.015625 -10.25 1.609375 -11.40625 C 2.203125 -12.570312 3.039062 -13.472656 4.125 -14.109375 C 5.21875 -14.753906 6.507812 -15.078125 8 -15.078125 C 9.050781 -15.078125 10.007812 -14.863281 10.875 -14.4375 C 11.738281 -14.019531 12.460938 -13.429688 13.046875 -12.671875 C 13.640625 -11.921875 14.050781 -11.023438 14.28125 -9.984375 L 12.640625 -9.578125 C 12.421875 -10.804688 11.890625 -11.773438 11.046875 -12.484375 C 10.210938 -13.191406 9.195312 -13.546875 8 -13.546875 C 6.863281 -13.546875 5.878906 -13.289062 5.046875 -12.78125 C 4.210938 -12.269531 3.566406 -11.539062 3.109375 -10.59375 C 2.660156 -9.65625 2.4375 -8.546875 2.4375 -7.265625 C 2.445312 -6.003906 2.695312 -4.898438 3.1875 -3.953125 C 3.675781 -3.015625 4.367188 -2.289062 5.265625 -1.78125 C 6.171875 -1.269531 7.234375 -1.015625 8.453125 -1.015625 C 9.429688 -1.015625 10.304688 -1.207031 11.078125 -1.59375 C 11.847656 -1.988281 12.476562 -2.546875 12.96875 -3.265625 C 13.46875 -3.984375 13.785156 -4.820312 13.921875 -5.78125 L 15.578125 -5.375 C 15.398438 -4.175781 14.984375 -3.132812 14.328125 -2.25 C 13.679688 -1.363281 12.851562 -0.679688 11.84375 -0.203125 C 10.84375 0.273438 9.710938 0.515625 8.453125 0.515625 Z M 8.453125 0.515625 "/></g></g></g><g fill="#000000" fill-opacity="1"><g transform="translate(63.058665, 56.508029)"><g><path d="M 8.546875 0.515625 C 6.984375 0.515625 5.613281 0.191406 4.4375 -0.453125 C 3.257812 -1.097656 2.34375 -2.003906 1.6875 -3.171875 C 1.039062 -4.335938 0.71875 -5.703125 0.71875 -7.265625 C 0.71875 -8.835938 1.039062 -10.207031 1.6875 -11.375 C 2.34375 -12.550781 3.257812 -13.460938 4.4375 -14.109375 C 5.613281 -14.753906 6.984375 -15.078125 8.546875 -15.078125 C 10.128906 -15.078125 11.507812 -14.753906 12.6875 -14.109375 C 13.863281 -13.460938 14.773438 -12.550781 15.421875 -11.375 C 16.078125 -10.207031 16.40625 -8.835938 16.40625 -7.265625 C 16.40625 -5.703125 16.078125 -4.335938 15.421875 -3.171875 C 14.773438 -2.003906 13.863281 -1.097656 12.6875 -0.453125 C 11.507812 0.191406 10.128906 0.515625 8.546875 0.515625 Z M 8.546875 -1.015625 C 9.785156 -1.015625 10.863281 -1.273438 11.78125 -1.796875 C 12.695312 -2.316406 13.40625 -3.046875 13.90625 -3.984375 C 14.414062 -4.921875 14.671875 -6.015625 14.671875 -7.265625 C 14.671875 -8.535156 14.414062 -9.640625 13.90625 -10.578125 C 13.40625 -11.515625 12.695312 -12.242188 11.78125 -12.765625 C 10.863281 -13.285156 9.785156 -13.546875 8.546875 -13.546875 C 7.328125 -13.546875 6.253906 -13.285156 5.328125 -12.765625 C 4.410156 -12.242188 3.695312 -11.515625 3.1875 -10.578125 C 2.6875 -9.640625 2.4375 -8.535156 2.4375 -7.265625 C 2.4375 -6.015625 2.6875 -4.921875 3.1875 -3.984375 C 3.695312 -3.046875 4.410156 -2.316406 5.328125 -1.796875 C 6.253906 -1.273438 7.328125 -1.015625 8.546875 -1.015625 Z M 8.546875 -1.015625 "/></g></g></g><g fill="#000000" fill-opacity="1"><g transform="translate(85.447402, 56.508029)"><g><path d="M 1.234375 0 L 1.234375 -14.5625 L 3.53125 -14.5625 L 10.984375 -2.203125 L 11.03125 -2.203125 L 11.03125 -14.5625 L 12.765625 -14.5625 L 12.765625 0 L 10.46875 0 L 3 -12.328125 L 2.953125 -12.328125 L 2.953125 0 Z M 1.234375 0 "/></g></g></g><g fill="#000000" fill-opacity="1"><g transform="translate(104.717537, 56.508029)"><g><path d="M 6.71875 0.515625 C 5.601562 0.515625 4.585938 0.300781 3.671875 -0.125 C 2.753906 -0.5625 2.007812 -1.164062 1.4375 -1.9375 C 0.863281 -2.707031 0.519531 -3.585938 0.40625 -4.578125 L 2.109375 -4.890625 C 2.160156 -4.140625 2.390625 -3.46875 2.796875 -2.875 C 3.203125 -2.289062 3.742188 -1.832031 4.421875 -1.5 C 5.109375 -1.175781 5.875 -1.015625 6.71875 -1.015625 C 7.851562 -1.015625 8.75 -1.28125 9.40625 -1.8125 C 10.070312 -2.351562 10.40625 -3.023438 10.40625 -3.828125 C 10.40625 -4.472656 10.164062 -4.992188 9.6875 -5.390625 C 9.207031 -5.785156 8.4375 -6.109375 7.375 -6.359375 L 5.015625 -6.90625 C 3.722656 -7.207031 2.765625 -7.660156 2.140625 -8.265625 C 1.523438 -8.867188 1.21875 -9.65625 1.21875 -10.625 C 1.21875 -11.5 1.421875 -12.269531 1.828125 -12.9375 C 2.242188 -13.601562 2.820312 -14.125 3.5625 -14.5 C 4.300781 -14.882812 5.164062 -15.078125 6.15625 -15.078125 C 7.050781 -15.078125 7.851562 -14.90625 8.5625 -14.5625 C 9.28125 -14.21875 9.875 -13.734375 10.34375 -13.109375 C 10.8125 -12.492188 11.113281 -11.78125 11.25 -10.96875 L 9.625 -10.5625 C 9.53125 -11.445312 9.164062 -12.164062 8.53125 -12.71875 C 7.894531 -13.269531 7.109375 -13.546875 6.171875 -13.546875 C 5.179688 -13.546875 4.394531 -13.296875 3.8125 -12.796875 C 3.226562 -12.296875 2.9375 -11.664062 2.9375 -10.90625 C 2.9375 -10.289062 3.140625 -9.796875 3.546875 -9.421875 C 3.960938 -9.046875 4.632812 -8.753906 5.5625 -8.546875 L 7.90625 -8.015625 C 10.71875 -7.390625 12.125 -6.082031 12.125 -4.09375 C 12.125 -3.207031 11.898438 -2.414062 11.453125 -1.71875 C 11.003906 -1.03125 10.375 -0.484375 9.5625 -0.078125 C 8.757812 0.316406 7.8125 0.515625 6.71875 0.515625 Z M 6.71875 0.515625 "/></g></g></g><g fill="#000000" fill-opacity="1"><g transform="translate(122.521308, 56.508029)"><g><path d="M 6.9375 0.515625 C 5.769531 0.515625 4.738281 0.265625 3.84375 -0.234375 C 2.957031 -0.734375 2.265625 -1.4375 1.765625 -2.34375 C 1.273438 -3.25 1.03125 -4.285156 1.03125 -5.453125 L 1.03125 -14.5625 L 2.75 -14.5625 L 2.75 -5.453125 C 2.75 -4.640625 2.921875 -3.894531 3.265625 -3.21875 C 3.609375 -2.539062 4.09375 -2.003906 4.71875 -1.609375 C 5.34375 -1.210938 6.082031 -1.015625 6.9375 -1.015625 C 7.789062 -1.015625 8.523438 -1.203125 9.140625 -1.578125 C 9.765625 -1.953125 10.25 -2.472656 10.59375 -3.140625 C 10.9375 -3.816406 11.109375 -4.585938 11.109375 -5.453125 L 11.109375 -14.5625 L 12.84375 -14.5625 L 12.84375 -5.453125 C 12.84375 -4.285156 12.59375 -3.25 12.09375 -2.34375 C 11.59375 -1.4375 10.898438 -0.734375 10.015625 -0.234375 C 9.140625 0.265625 8.113281 0.515625 6.9375 0.515625 Z M 6.9375 0.515625 "/></g></g></g><g fill="#000000" fill-opacity="1"><g transform="translate(141.667521, 56.508029)"><g><path d="M 1.234375 0 L 1.234375 -14.5625 L 2.953125 -14.5625 L 2.953125 -1.53125 L 10.40625 -1.53125 L 10.40625 0 Z M 1.234375 0 "/></g></g></g><g fill="#000000" fill-opacity="1"><g transform="translate(157.550559, 56.508029)"><g><path d="M 5.078125 0 L 5.078125 -13.03125 L 0.203125 -13.03125 L 0.203125 -14.5625 L 11.671875 -14.5625 L 11.671875 -13.03125 L 6.796875 -13.03125 L 6.796875 0 Z M 5.078125 0 "/></g></g></g><g fill="#000000" fill-opacity="1"><g transform="translate(174.693435, 56.508029)"><g><path d="M 1.234375 0 L 1.234375 -14.5625 L 2.953125 -14.5625 L 2.953125 0 Z M 1.234375 0 "/></g></g></g><g fill="#000000" fill-opacity="1"><g transform="translate(184.153397, 56.508029)"><g><path d="M 1.234375 0 L 1.234375 -14.5625 L 3.53125 -14.5625 L 10.984375 -2.203125 L 11.03125 -2.203125 L 11.03125 -14.5625 L 12.765625 -14.5625 L 12.765625 0 L 10.46875 0 L 3 -12.328125 L 2.953125 -12.328125 L 2.953125 0 Z M 1.234375 0 "/></g></g></g><g fill="#000000" fill-opacity="1"><g transform="translate(203.423532, 56.508029)"><g><path d="M 8.296875 0.515625 C 7.203125 0.515625 6.191406 0.320312 5.265625 -0.0625 C 4.347656 -0.445312 3.546875 -0.988281 2.859375 -1.6875 C 2.179688 -2.394531 1.65625 -3.21875 1.28125 -4.15625 C 0.90625 -5.101562 0.71875 -6.140625 0.71875 -7.265625 C 0.71875 -8.398438 0.90625 -9.441406 1.28125 -10.390625 C 1.65625 -11.335938 2.175781 -12.160156 2.84375 -12.859375 C 3.507812 -13.566406 4.296875 -14.113281 5.203125 -14.5 C 6.109375 -14.882812 7.109375 -15.078125 8.203125 -15.078125 C 9.160156 -15.078125 10.066406 -14.882812 10.921875 -14.5 C 11.773438 -14.125 12.515625 -13.601562 13.140625 -12.9375 C 13.773438 -12.28125 14.234375 -11.523438 14.515625 -10.671875 L 12.9375 -10.15625 C 12.707031 -10.820312 12.351562 -11.410156 11.875 -11.921875 C 11.40625 -12.429688 10.851562 -12.828125 10.21875 -13.109375 C 9.59375 -13.398438 8.914062 -13.546875 8.1875 -13.546875 C 7.0625 -13.546875 6.066406 -13.273438 5.203125 -12.734375 C 4.347656 -12.203125 3.671875 -11.460938 3.171875 -10.515625 C 2.679688 -9.578125 2.4375 -8.492188 2.4375 -7.265625 C 2.4375 -6.066406 2.691406 -4.992188 3.203125 -4.046875 C 3.722656 -3.109375 4.4375 -2.367188 5.34375 -1.828125 C 6.257812 -1.285156 7.296875 -1.015625 8.453125 -1.015625 C 9.523438 -1.015625 10.492188 -1.253906 11.359375 -1.734375 C 12.222656 -2.210938 12.910156 -2.863281 13.421875 -3.6875 C 13.929688 -4.519531 14.1875 -5.457031 14.1875 -6.5 L 6.09375 -6.5 L 6.09375 -8.03125 L 15.953125 -8.03125 L 15.953125 0 L 14.5 0 L 14.328125 -2.8125 L 14.3125 -2.8125 C 13.675781 -1.78125 12.84375 -0.96875 11.8125 -0.375 C 10.78125 0.21875 9.609375 0.515625 8.296875 0.515625 Z M 8.296875 0.515625 "/></g></g></g></g></g></g></g></g></g></mask><clipPath id="32bffef0bf"><path d="M 0.15625 0.960938 L 266.511719 0.960938 L 266.511719 103.21875 L 0.15625 103.21875 Z M 0.15625 0.960938 " clip-rule="nonzero"/></clipPath><clipPath id="e7a11410a5"><rect x="0" width="270" y="0" height="105"/></clipPath><clipPath id="d7d4619a9f"><rect x="0" width="270" y="0" height="105"/></clipPath><clipPath id="2910941429"><rect x="0" width="270" y="0" height="105"/></clipPath></defs><g clip-path="url(#eeedd72db7)"><path fill="#bc284e" d="M 101.53125 192.796875 L 109.140625 179.625 L 136.515625 227.085938 Z M 48.628906 179.648438 L 56.214844 192.824219 L 21.179688 227.183594 Z M 64.898438 177.800781 L 49.703125 177.800781 L 77.175781 130.242188 Z M 92.847656 177.800781 L 80.644531 130.242188 L 108.09375 177.800781 Z M 100.433594 192.199219 L 96.964844 191.226562 L 106.273438 182.09375 Z M 94.84375 204.375 L 100.882812 193.921875 L 135.46875 227.808594 Z M 87.558594 217.003906 L 134.867188 230.179688 L 79.945312 230.179688 Z M 70.1875 217.027344 L 77.777344 230.203125 L 22.929688 230.203125 Z M 62.902344 204.402344 L 22.328125 227.808594 L 56.863281 193.945312 Z M 60.832031 191.226562 L 57.3125 192.199219 L 51.425781 182.019531 Z M 91.574219 179.050781 L 90.574219 182.941406 L 78.921875 186.1875 L 67.246094 182.917969 L 66.246094 179.023438 L 91.550781 179.023438 Z M 79.496094 130.714844 L 91.574219 177.800781 L 79.472656 177.800781 L 79.472656 130.714844 Z M 78.25 177.800781 L 66.195312 177.800781 L 78.222656 131.113281 L 78.222656 177.800781 Z M 90.203125 189.328125 L 91.597656 183.941406 L 106.996094 179.648438 L 95.59375 190.828125 Z M 87.855469 198.386719 L 89.878906 190.527344 L 94.542969 191.824219 Z M 87.132812 215.230469 L 84.238281 212.410156 L 87.257812 200.707031 L 95.941406 192.199219 L 99.808594 193.273438 Z M 94.246094 205.425781 L 134.867188 228.878906 L 88.207031 215.878906 Z M 83.890625 213.808594 L 86.484375 216.355469 L 80.59375 226.535156 Z M 73.855469 213.859375 L 77.125 226.5625 L 71.261719 216.402344 Z M 67.867188 190.554688 L 69.863281 198.339844 L 63.226562 191.824219 Z M 67.570312 189.355469 L 62.203125 190.851562 L 50.800781 179.648438 L 66.171875 183.941406 Z M 68.765625 189.03125 L 67.570312 184.339844 L 76.578125 186.859375 Z M 79.796875 208.070312 L 85.535156 202.429688 L 83.214844 211.414062 Z M 74.53125 211.464844 L 72.183594 202.378906 L 78 208.070312 Z M 78.898438 208.941406 L 82.867188 212.8125 L 78.875 228.308594 L 74.878906 212.859375 Z M 81.21875 186.835938 L 90.203125 184.339844 L 89.003906 189.007812 Z M 88.679688 190.203125 L 86.136719 200.085938 L 78.898438 207.171875 L 71.613281 200.011719 L 69.089844 190.203125 L 78.898438 187.457031 Z M 57.9375 193.320312 L 61.828125 192.226562 L 70.464844 200.683594 L 73.484375 212.460938 L 70.613281 215.28125 Z M 69.539062 215.90625 L 22.953125 228.878906 L 63.527344 205.449219 Z M 104.523438 179.050781 L 91.949219 182.542969 L 92.847656 179.050781 Z M 64.925781 179.050781 L 65.824219 182.542969 L 53.269531 179.050781 Z M 17.738281 230.828125 L 17.738281 230.925781 L 17.789062 230.925781 L 17.789062 230.976562 L 17.835938 230.976562 L 17.914062 231.078125 L 17.9375 231.078125 L 18.011719 231.125 L 139.785156 231.125 L 139.859375 231.078125 L 139.882812 231.078125 L 139.957031 230.976562 L 139.984375 230.976562 L 139.984375 231.050781 L 140.007812 231.050781 L 140.007812 230.953125 C 140.007812 230.925781 140.007812 230.925781 140.007812 230.902344 L 140.007812 230.554688 L 139.835938 230.554688 L 79.445312 125.675781 L 79.421875 125.675781 L 79.421875 125.597656 L 78.898438 125.597656 C 78.589844 125.59375 78.324219 125.820312 78.273438 126.125 L 17.8125 230.503906 L 17.789062 230.503906 L 17.789062 230.652344 L 17.738281 230.652344 L 17.738281 230.828125 " fill-opacity="1" fill-rule="nonzero"/></g><g transform="matrix(1, 0, 0, 1, 33, 50)"><g clip-path="url(#93ca8cae3d)"><g clip-path="url(#33c07a9e9c)"><g transform="matrix(1, 0, 0, 1, 2, 1)"><g clip-path="url(#170649ab2d)"><g clip-path="url(#4b31eccb0b)"><g mask="url(#4697e614f9)"><g transform="matrix(1, 0, 0, 1, 0, -0.000000000000007105)"><g clip-path="url(#038d316ae3)"><g clip-path="url(#e1d3e581a3)"><path fill="url(#db7f688e30)" d="M 0.296875 0.726562 L 0.296875 273.191406 L 340 273.191406 L 340 0.726562 Z M 0.296875 0.726562 " fill-rule="nonzero"/></g></g></g></g></g></g></g></g></g></g><g transform="matrix(1, 0, 0, 1, 105, 173)"><g clip-path="url(#2910941429)"><g clip-path="url(#3be6f02432)"><g><g clip-path="url(#d7d4619a9f)"><g clip-path="url(#ddea49a682)"><g mask="url(#5ce395a394)"><g><g clip-path="url(#e7a11410a5)"><g clip-path="url(#32bffef0bf)"><path fill="url(#f15d82685f)" d="M 0.15625 0.960938 L 0.15625 103.21875 L 266.511719 103.21875 L 266.511719 0.960938 Z M 0.15625 0.960938 " fill-rule="nonzero"/></g></g></g></g></g></g></g></g></g></g></svg>